# xmcd
#
# Track frame offsets:
#	150
#	21238
#	43783
#	61223
#	74155
#	87710
#	102645
#	117443
#	132065
#	144985
#	159603
#	178013
#	192678
#	211725
#	227858
#	246210
#	264270
#	275593
#	293390
#
# Disc length: 4050 seconds
#
# Revision: 5
# Processed by: cddbd v1.5.2PL0 Copyright (c) Steve Scherf et al.
# Submitted via: EasyCDDAExtractor 11.9.9.666
#
DISCID=270fd013
DTITLE=Eric Burdon - House Of The Rising Sun
DYEAR=1998
DGENRE=Blues
TTITLE0=House Of The Rising Sun
TTITLE1=Spill The Wine
TTITLE2=San Franciscan Nights
TTITLE3=Help Me Girl
TTITLE4=Bring It On Home To Me
TTITLE5=We've Gotta Get Out Of This Place
TTITLE6=Don't Bring Me Down
TTITLE7=It's My Life
TTITLE8=I'm Crying
TTITLE9=Boom Boom
TTITLE10=See See Rider
TTITLE11=When I Was Young
TTITLE12=Montery
TTITLE13=Anything
TTITLE14=White Houses
TTITLE15=The Night
TTITLE16=Gonna Send You Back To Walker (Gonna Send You Back To Georgia)
TTITLE17=Inside - Looking Out
TTITLE18=Don't Let Me Be Misunderstood
EXTD=
EXTT0=
EXTT1=
EXTT2=
EXTT3=
EXTT4=
EXTT5=
EXTT6=
EXTT7=
EXTT8=
EXTT9=
EXTT10=
EXTT11=
EXTT12=
EXTT13=
EXTT14=
EXTT15=
EXTT16=
EXTT17=
EXTT18=
PLAYORDER=
